<svg width="18" height="18" viewBox="0 0 18 18" fill="none" xmlns="http://www.w3.org/2000/svg">
<path d="M12.6268 1.84736C13.6109 1.85019 14.5539 2.22791 15.2498 2.89802C15.9456 3.56813 16.3379 4.47619 16.3408 5.42386V12.5761C16.3379 13.5238 15.9456 14.4318 15.2498 15.1019C14.5539 15.7721 13.6109 16.1498 12.6268 16.1526H5.19944C4.21532 16.1498 3.27234 15.7721 2.57645 15.1019C1.88057 14.4318 1.48832 13.5238 1.48539 12.5761V5.42386C1.48832 4.47619 1.88057 3.56813 2.57645 2.89802C3.27234 2.22791 4.21532 1.85019 5.19944 1.84736H12.6268ZM12.6268 0.416992H5.19944C2.33969 0.416992 0 2.67003 0 5.42386V12.5761C0 15.3299 2.33969 17.583 5.19944 17.583H12.6268C15.4865 17.583 17.8262 15.3299 17.8262 12.5761V5.42386C17.8262 2.67003 15.4865 0.416992 12.6268 0.416992Z" fill="#1C2752"/>
</svg>
