<svg width="11" height="11" viewBox="0 0 11 11" fill="none" xmlns="http://www.w3.org/2000/svg">
<path d="M9.74089 2.42407C9.52054 2.42407 9.30513 2.36115 9.12191 2.24326C8.93869 2.12537 8.79589 1.95781 8.71157 1.76177C8.62724 1.56572 8.60518 1.35 8.64816 1.14189C8.69115 0.93377 8.79727 0.742602 8.95308 0.592558C9.1089 0.442514 9.30742 0.340333 9.52354 0.298936C9.73966 0.257539 9.96368 0.278785 10.1673 0.359988C10.3708 0.441192 10.5448 0.578705 10.6673 0.755138C10.7897 0.931571 10.855 1.139 10.855 1.35119C10.8553 1.49217 10.8267 1.63182 10.7709 1.76212C10.715 1.89243 10.6329 2.01082 10.5294 2.11051C10.4259 2.21019 10.3029 2.28921 10.1676 2.34302C10.0323 2.39683 9.88729 2.42437 9.74089 2.42407ZM4.9131 3.13906C5.50074 3.13906 6.07518 3.30686 6.56379 3.62125C7.05239 3.93563 7.43322 4.38248 7.6581 4.90528C7.88298 5.42809 7.94182 6.00336 7.82717 6.55837C7.71253 7.11337 7.42955 7.62317 7.01403 8.02331C6.5985 8.42344 6.06909 8.69594 5.49274 8.80634C4.91639 8.91673 4.31899 8.86007 3.77608 8.64352C3.23317 8.42697 2.76914 8.06025 2.44266 7.58974C2.11619 7.11923 1.94193 6.56606 1.94193 6.00019C1.94277 5.24162 2.25608 4.51435 2.81309 3.97796C3.37011 3.44157 4.12535 3.13987 4.9131 3.13906ZM4.9131 1.70869C4.03167 1.70869 3.17005 1.96038 2.43717 2.43194C1.70429 2.90349 1.13309 3.57373 0.79578 4.3579C0.458474 5.14207 0.370219 6.00495 0.542176 6.83742C0.714133 7.66989 1.13858 8.43456 1.76184 9.03473C2.3851 9.63491 3.17918 10.0436 4.04367 10.2092C4.90815 10.3748 5.80422 10.2898 6.61854 9.96501C7.43287 9.6402 8.12889 9.09015 8.61858 8.38442C9.10828 7.67868 9.36965 6.84897 9.36965 6.00019C9.36965 4.86201 8.90012 3.77045 8.06435 2.96564C7.22859 2.16083 6.09505 1.70869 4.9131 1.70869Z" fill="#1C2752"/>
</svg>
