<svg width="23" height="32" viewBox="0 0 23 32" fill="none" xmlns="http://www.w3.org/2000/svg">
<path d="M11.3 1C5.77922 1 1.30005 5.42738 1.30005 10.8803C1.30005 17.1546 7.96672 27.0977 10.4146 30.532C10.5162 30.677 10.6494 30.7949 10.8033 30.8763C10.9572 30.9576 11.1274 31 11.3 31C11.4727 31 11.6429 30.9576 11.7968 30.8763C11.9507 30.7949 12.0839 30.677 12.1855 30.532C14.6334 27.0991 21.3 17.1597 21.3 10.8803C21.3 5.42738 16.8209 1 11.3 1Z" stroke="#1C2752" stroke-width="2" stroke-linecap="round" stroke-linejoin="round"/>
<path d="M11.3 16C13.5092 16 15.3 14.2091 15.3 12C15.3 9.79086 13.5092 8 11.3 8C9.09091 8 7.30005 9.79086 7.30005 12C7.30005 14.2091 9.09091 16 11.3 16Z" stroke="#1C2752" stroke-width="2" stroke-linecap="round" stroke-linejoin="round"/>
</svg>
